<?xml version="1.0" encoding="utf-8"?>
<!-- Generator: Adobe Illustrator 18.1.1, SVG Export Plug-In . SVG Version: 6.00 Build 0)  -->
<!DOCTYPE svg PUBLIC "-//W3C//DTD SVG 1.1//EN" "http://www.w3.org/Graphics/SVG/1.1/DTD/svg11.dtd">
<svg version="1.1" id="Layer_1" xmlns="http://www.w3.org/2000/svg" xmlns:xlink="http://www.w3.org/1999/xlink" x="0px" y="0px"
	 viewBox="793 -5 30 30" enable-background="new 793 -5 30 30" xml:space="preserve">
	<path id="dribbbble-icon" d="M817.5,9.5c-0.2-2.8-1.4-5-3-6.4s-3.9-2.7-7-2.5c-0.7,0-1.4,0.2-2.1,0.4c-1.8,0.5-3.3,1.5-4.4,2.7
		c-0.8,0.8-1.3,1.7-1.8,2.9c-0.5,1.1-0.8,2.5-0.7,4c0.2,2.9,1.4,4.9,3,6.4c1.6,1.4,4,2.7,6.9,2.5c1.4-0.1,2.7-0.5,3.7-1
		c1-0.6,2-1.2,2.7-2C816.4,14.9,817.7,12.5,817.5,9.5z M807.7,2c2.5-0.1,4.4,0.9,5.7,2c-1,1.3-2.6,2.3-4.3,2.9
		c-0.2-0.2-0.2-0.4-0.4-0.7c-0.8-1.3-1.7-2.7-2.7-4.1C806.7,2.1,807.1,2,807.7,2z M804.6,2.7c1.1,1.4,2.1,3,3,4.6
		c-2.2,0.7-4.6,0.9-7.5,1C800.7,5.7,802.3,3.9,804.6,2.7z M799.9,9.8c3.1,0,5.9-0.5,8.2-1.1c0.1,0.1,0.2,0.2,0.2,0.3
		c0.2,0.3,0.3,0.7,0.5,1c-0.4,0.2-0.8,0.3-1.1,0.4c-2.5,1-4.4,2.8-5.8,5C800.8,14.1,799.8,12.3,799.9,9.8z M806.7,18
		c-1.4-0.3-2.7-0.9-3.6-1.6c1.3-2.5,3.6-4.1,6.4-5c0.1,0.1,0.1,0.2,0.2,0.4c0.7,1.7,1.2,3.7,1.6,5.8C810,18,808.3,18.3,806.7,18z
		 M813.7,15.7c-0.4,0.4-0.8,0.8-1.2,0.9c-0.4-2.1-0.9-4-1.5-5.8c1.7-0.3,3.6-0.1,5,0.4C815.7,13.2,814.8,14.7,813.7,15.7z M810.5,9.7
		c-0.1-0.1-0.1-0.3-0.2-0.4c-0.2-0.4-0.4-0.8-0.6-1.1c1.8-0.8,3.3-1.8,4.6-3.2c1,1.2,1.8,2.8,1.8,5C814.4,9.7,812.4,9.5,810.5,9.7z"
		/>
</svg>
