<?xml version="1.0" encoding="utf-8"?>
<!-- Generator: Adobe Illustrator 22.1.0, SVG Export Plug-In . SVG Version: 6.00 Build 0)  -->
<!DOCTYPE svg PUBLIC "-//W3C//DTD SVG 1.1//EN" "http://www.w3.org/Graphics/SVG/1.1/DTD/svg11.dtd">
<svg version="1.1" id="Layer_1" xmlns="http://www.w3.org/2000/svg" xmlns:xlink="http://www.w3.org/1999/xlink" x="0px" y="0px"
	 viewBox="0 0 30.2 30" style="enable-background:new 0 0 30.2 30;" xml:space="preserve">
<path d="M7.4,12.3h3.3V23H7.4V12.3z M9.1,7C10.1,7,11,7.9,11,9c0,1.1-0.9,1.9-1.9,1.9C8,10.9,7.1,10,7.1,9C7.1,7.9,8,7,9.1,7
	 M12.8,12.3H16v1.5h0c0.4-0.8,1.5-1.7,3.1-1.7c3.3,0,4,2.2,4,5.1V23h-3.3v-5.2c0-1.2,0-2.8-1.7-2.8c-1.7,0-2,1.3-2,2.7V23h-3.3V12.3
	z"/>
</svg>
