<?xml version="1.0" encoding="utf-8"?>
<!-- Generator: Adobe Illustrator 22.1.0, SVG Export Plug-In . SVG Version: 6.00 Build 0)  -->
<!DOCTYPE svg PUBLIC "-//W3C//DTD SVG 1.1//EN" "http://www.w3.org/Graphics/SVG/1.1/DTD/svg11.dtd">
<svg version="1.1" id="Layer_1" xmlns="http://www.w3.org/2000/svg" xmlns:xlink="http://www.w3.org/1999/xlink" x="0px" y="0px"
	 viewBox="0 0 30 30" style="enable-background:new 0 0 30 30;" xml:space="preserve">
<style type="text/css">
	.st0{fill:#FFFFFF;}
</style>
<path class="st0" d="M21.6,6.1H6.3C5.6,6.1,5,6.7,5,7.4v15.3C5,23.4,5.6,24,6.3,24h15.3c0.7,0,1.3-0.6,1.3-1.3V7.4
	C22.9,6.7,22.3,6.1,21.6,6.1z M7.7,12.8h2.7v8.5H7.7V12.8z M9,8.6c0.8,0,1.5,0.7,1.5,1.5c0,0.9-0.7,1.5-1.5,1.5
	c-0.9,0-1.5-0.7-1.5-1.5C7.4,9.2,8.1,8.6,9,8.6 M12,12.8h2.5V14h0c0.4-0.7,1.2-1.4,2.5-1.4c2.7,0,3.2,1.8,3.2,4.1v4.7h-2.7v-4.2
	c0-1,0-2.3-1.4-2.3c-1.4,0-1.6,1.1-1.6,2.2v4.2H12V12.8z"/>
</svg>
