<?xml version="1.0" encoding="utf-8"?>
<!-- Generator: Adobe Illustrator 18.1.1, SVG Export Plug-In . SVG Version: 6.00 Build 0)  -->
<!DOCTYPE svg PUBLIC "-//W3C//DTD SVG 1.1//EN" "http://www.w3.org/Graphics/SVG/1.1/DTD/svg11.dtd">
<svg class="icon twitter" viewBox="793 -5 30 30">
  <path id="twitter-icon" d="M815,6.5c0,0.2,0,0.4,0,0.4c0,4.8-3.7,10.1-10.4,10.1c-2,0-4.1-0.6-5.6-1.6c0.3,0,0.5,0.1,0.9,0.1
	c1.6,0,3.3-0.6,4.5-1.6c-1.6,0-3-1.1-3.4-2.5c0.3,0.1,0.4,0.2,0.7,0.2c0.4,0,0.6-0.1,1-0.1c-1.6-0.4-3-1.8-3-3.4V7.9
	c0.5,0.3,1.1,0.4,1.6,0.4c-0.9-0.5-1.6-1.7-1.6-2.9c0-0.7,0.2-1.3,0.5-1.9c1.9,2.3,4.5,3.6,7.6,3.8c-0.1-0.3-0.2-0.5-0.2-0.8
	c0-1.9,1.6-3.6,3.7-3.6c1.1,0,1.9,0.4,2.6,1.1c0.8-0.2,1.6-0.4,2.3-0.9c-0.3,0.9-0.9,1.6-1.6,1.9c0.7-0.1,1.4-0.3,2.2-0.5
	C816.4,5.4,815.7,6,815,6.5z"/>
</svg>
